<?xml version="1.0" standalone="no"?>
<!DOCTYPE svg PUBLIC "-//W3C//DTD SVG 20010904//EN"
 "http://www.w3.org/TR/2001/REC-SVG-20010904/DTD/svg10.dtd">
<svg version="1.0" xmlns="http://www.w3.org/2000/svg"
 width="160.000000pt" height="160.000000pt" viewBox="0 0 160.000000 160.000000"
 preserveAspectRatio="xMidYMid meet">
<metadata>
Created by potrace 1.16, written by Peter Selinger 2001-2019
</metadata>
<g transform="translate(0.000000,160.000000) scale(0.100000,-0.100000)"
fill="#000000" stroke="none">
<path d="M494 1545 c-51 -35 -55 -123 -7 -171 24 -24 25 -28 18 -102 -9 -97
-35 -182 -70 -228 -24 -32 -27 -41 -21 -86 15 -108 69 -206 132 -235 30 -15
37 -15 60 -2 39 21 89 103 119 194 l25 80 52 -1 51 -2 22 -68 c28 -90 57 -144
95 -183 36 -35 49 -37 91 -16 42 22 86 88 109 163 23 75 26 125 6 141 -31 26
-66 129 -76 222 l-9 93 29 45 c30 44 39 81 20 81 -5 0 -10 -4 -10 -9 0 -19
-38 -17 -64 4 -21 17 -26 28 -22 43 5 16 2 21 -16 24 -20 4 -18 6 12 15 l35
11 -33 1 c-24 1 -42 -7 -63 -28 -39 -40 -40 -96 -3 -141 23 -27 26 -37 20 -78
-9 -67 -47 -177 -56 -162 -5 8 -13 4 -27 -14 -11 -14 -32 -31 -47 -37 -25 -12
-30 -10 -67 27 -25 24 -39 46 -37 59 1 11 -1 25 -5 32 -4 7 1 14 15 19 25 7
48 28 48 41 0 15 -65 5 -101 -15 -19 -10 -44 -36 -56 -57 l-21 -38 -16 53
c-22 75 -31 150 -18 150 14 0 42 52 42 77 0 13 -3 14 -12 5 -31 -31 -107 13
-92 53 7 16 3 17 -26 12 -32 -7 -33 -7 -16 12 10 11 30 22 45 24 25 4 24 4 -4
6 -17 0 -40 -6 -51 -14z"/>
<path d="M23 1398 c-22 -10 -23 -17 -23 -108 0 -95 3 -105 33 -108 4 -1 22
-12 38 -26 41 -35 49 -33 42 10 -6 34 -5 35 21 28 23 -5 28 -2 41 30 21 49 19
93 -6 127 -37 52 -96 71 -146 47z"/>
<path d="M1479 1395 c-26 -14 -79 -106 -79 -138 0 -23 19 -59 39 -74 13 -9 18
-8 24 3 16 29 30 14 23 -26 -7 -47 4 -51 40 -15 14 14 29 23 34 20 4 -3 15 -2
24 1 13 5 16 21 16 77 0 67 -1 69 -18 54 -10 -10 -23 -17 -28 -17 -18 0 -55
42 -50 56 7 17 -16 18 -32 2 -16 -16 -16 4 1 24 6 8 20 20 31 25 10 6 15 13
10 16 -5 3 -21 -1 -35 -8z"/>
<path d="M1242 1302 c-13 -2 -43 -23 -68 -46 -36 -35 -44 -49 -44 -78 0 -49
39 -104 70 -100 23 4 23 3 17 -71 -4 -45 -18 -103 -34 -143 -24 -62 -27 -84
-30 -223 -4 -166 -1 -177 45 -160 97 37 163 152 186 323 5 37 5 38 -14 21 -24
-22 -25 -14 -5 26 20 37 75 205 75 227 0 9 -13 -4 -29 -29 -24 -38 -78 -79
-105 -79 -3 0 -6 19 -6 43 0 36 4 46 24 56 36 20 49 56 35 99 -10 31 -13 34
-19 16 -4 -10 -20 -26 -34 -34 -25 -13 -29 -12 -58 18 -28 28 -30 34 -20 57
15 32 2 32 -37 -1 -34 -28 -37 -27 -19 10 11 25 71 52 89 40 5 -3 16 -1 26 4
15 9 15 10 -3 19 -10 5 -29 7 -42 5z"/>
<path d="M252 1250 c-47 -44 -40 -132 13 -169 25 -17 36 -33 41 -60 4 -20 12
-43 20 -51 9 -11 13 -69 16 -215 3 -189 4 -202 26 -238 29 -46 60 -65 73 -46
5 8 8 84 6 169 -3 141 -6 161 -30 224 -16 40 -30 98 -34 143 -6 70 -5 75 13
71 11 -2 30 7 47 24 33 34 36 85 7 119 l-19 24 5 -40 c5 -38 5 -39 -8 -16 -19
36 -30 35 -77 -5 l-43 -37 -25 25 c-27 27 -26 54 3 83 24 24 -8 19 -34 -5z"/>
<path d="M165 1060 c4 -19 23 -78 42 -130 19 -52 37 -103 40 -112 6 -20 25
-29 42 -19 15 10 30 72 31 127 0 38 -3 42 -29 47 -34 7 -86 49 -113 92 l-19
30 6 -35z"/>
<path d="M713 742 l-73 -47 0 -101 0 -101 76 -46 c42 -26 81 -47 86 -47 7 0
112 66 137 86 6 5 -27 34 -39 34 -22 0 -99 -60 -102 -80 -3 -20 -4 -20 -41 6
-23 15 -36 31 -33 39 2 8 -2 19 -10 25 -10 9 -14 33 -14 80 0 59 -2 68 -22 77
-21 9 -18 13 46 55 l68 46 52 -30 c98 -56 96 -54 105 -154 l9 -89 -2 100 -1
100 -70 47 c-38 26 -77 47 -85 47 -8 1 -48 -21 -87 -47z"/>
<path d="M792 608 c-58 -37 -68 -54 -51 -92 19 -41 53 -44 102 -9 33 22 43 36
45 62 3 30 -19 71 -37 71 -3 0 -30 -15 -59 -32z"/>
<path d="M1275 440 c-39 -16 -118 -41 -175 -57 -98 -26 -117 -28 -300 -28
-181 0 -198 2 -244 23 -27 12 -57 22 -66 22 -10 0 -47 7 -82 16 -109 27 -105
26 -78 10 153 -92 544 -117 803 -52 82 21 217 78 217 91 0 3 -1 5 -2 4 -2 -1
-35 -14 -73 -29z"/>
<path d="M204 373 c3 -32 1 -40 -10 -36 -26 10 -14 -16 19 -40 125 -94 354
-145 635 -140 235 4 467 67 542 148 l25 26 -55 -25 c-83 -39 -93 -36 -88 24 1
28 1 50 0 50 -2 0 -28 -7 -57 -15 -46 -14 -52 -18 -48 -38 6 -31 -21 -54 -42
-37 -8 7 -15 20 -15 29 0 16 -6 16 -76 2 -54 -10 -71 -17 -60 -23 10 -6 16
-22 16 -44 0 -30 -4 -37 -34 -49 -84 -35 -323 -38 -426 -4 -19 6 -41 13 -49
15 -11 4 -9 8 7 20 23 16 29 58 12 84 -8 13 -10 13 -10 -1 0 -23 -24 -41 -44
-33 -9 3 -16 17 -16 30 0 19 -24 44 -42 44 -2 0 -1 -22 0 -50 4 -51 -5 -62
-28 -35 -8 9 -11 30 -7 54 5 37 3 39 -40 60 -50 24 -63 21 -63 -15 0 -34 -17
-30 -35 9 l-15 32 4 -42z"/>
</g>
</svg>
